M48
; DRILL file {KiCad 9.0.7} date 2026-04-12T17:12:55+0200
; FORMAT={-:-/ absolute / metric / decimal}
; #@! TF.CreationDate,2026-04-12T17:12:55+02:00
; #@! TF.GenerationSoftware,Kicad,Pcbnew,9.0.7
; #@! TF.FileFunction,MixedPlating,1,4
FMAT,2
METRIC
; #@! TA.AperFunction,Plated,PTH,ViaDrill
T1C0.250
; #@! TA.AperFunction,Plated,PTH,ViaDrill
T2C0.300
; #@! TA.AperFunction,Plated,PTH,ViaDrill
T3C0.350
; #@! TA.AperFunction,Plated,PTH,ViaDrill
T4C0.400
; #@! TA.AperFunction,Plated,PTH,ViaDrill
T5C0.500
; #@! TA.AperFunction,Plated,PTH,ComponentDrill
T6C0.500
; #@! TA.AperFunction,Plated,PTH,ComponentDrill
T7C0.600
; #@! TA.AperFunction,Plated,PTH,ComponentDrill
T8C0.660
; #@! TA.AperFunction,Plated,PTH,ComponentDrill
T9C0.800
; #@! TA.AperFunction,Plated,PTH,ComponentDrill
T10C0.840
; #@! TA.AperFunction,Plated,PTH,ComponentDrill
T11C0.900
; #@! TA.AperFunction,Plated,PTH,ComponentDrill
T12C0.970
; #@! TA.AperFunction,Plated,PTH,ComponentDrill
T13C1.100
; #@! TA.AperFunction,Plated,PTH,ComponentDrill
T14C1.250
; #@! TA.AperFunction,Plated,PTH,ComponentDrill
T15C1.320
; #@! TA.AperFunction,Plated,PTH,ComponentDrill
T16C1.850
; #@! TA.AperFunction,Plated,PTH,ComponentDrill
T17C2.435
; #@! TA.AperFunction,Plated,PTH,ComponentDrill
T18C3.200
; #@! TA.AperFunction,Plated,PTH,ComponentDrill
T19C3.441
; #@! TA.AperFunction,NonPlated,NPTH,ComponentDrill
T20C0.650
; #@! TA.AperFunction,NonPlated,NPTH,ComponentDrill
T21C0.991
; #@! TA.AperFunction,NonPlated,NPTH,ComponentDrill
T22C1.830
; #@! TA.AperFunction,NonPlated,NPTH,ComponentDrill
T23C1.850
; #@! TA.AperFunction,NonPlated,NPTH,ComponentDrill
T24C2.390
; #@! TA.AperFunction,NonPlated,NPTH,ComponentDrill
T25C3.400
; #@! TA.AperFunction,NonPlated,NPTH,ComponentDrill
T26C3.550
%
G90
G05
T1
X102.1Y-97.0
X102.2Y-97.85
X102.5Y-96.15
X102.55Y-98.5
X102.95Y-99.1
X103.293Y-95.393
X103.5Y-99.6
X104.2Y-95.1
X104.303Y-96.366
X105.147Y-95.566
X105.682Y-96.118
X106.418Y-96.268
X107.016Y-95.725
X107.8Y-95.675
X122.4Y-98.1
X125.8Y-84.772
T2
X52.25Y-123.5
X55.0Y-84.25
X58.25Y-79.25
X58.25Y-95.75
X59.5Y-79.25
X59.5Y-95.0
X60.6Y-69.9
X61.25Y-114.0
X63.8Y-76.73
X64.75Y-59.25
X64.75Y-93.0
X65.25Y-75.25
X65.5Y-72.0
X65.5Y-73.0
X65.5Y-74.0
X65.5Y-78.5
X65.5Y-79.675
X66.75Y-59.25
X66.75Y-88.75
X67.25Y-112.5
X67.591Y-111.682
X68.0Y-77.75
X68.098Y-112.301
X68.25Y-89.0
X68.25Y-92.0
X68.424Y-113.674
X68.5Y-71.0
X68.5Y-71.975
X68.5Y-75.75
X68.5Y-77.0
X68.5Y-111.25
X68.699Y-112.902
X68.862Y-130.25
X69.0Y-73.075
X69.0Y-76.375
X69.375Y-113.329
X69.477Y-76.996
X69.5Y-75.75
X69.75Y-73.75
X69.75Y-112.5
X70.0Y-119.5
X71.5Y-129.75
X72.5Y-128.76
X73.0Y-119.5
X74.0Y-124.1
X74.5Y-114.3
X75.0Y-111.25
X76.25Y-113.375
X76.75Y-98.75
X77.0Y-77.0
X77.2Y-115.7
X77.25Y-118.75
X78.0Y-118.25
X78.009Y-119.003
X78.5Y-114.5
X78.93Y-119.375
X79.491Y-120.0
X79.75Y-77.0
X80.2Y-121.4
X80.2Y-122.2
X80.2Y-123.0
X80.2Y-123.8
X80.2Y-124.6
X80.2Y-125.4
X80.2Y-126.2
X80.25Y-112.25
X80.25Y-120.5
X80.9Y-71.0
X80.938Y-118.5
X81.0Y-111.25
X81.0Y-113.25
X81.0Y-119.5
X81.25Y-114.0
X82.0Y-113.25
X82.0Y-119.48
X82.65Y-81.9
X82.81Y-117.763
X82.934Y-77.41
X83.0Y-114.0
X83.5Y-78.0
X84.017Y-77.39
X85.0Y-96.75
X85.25Y-116.0
X87.0Y-84.5
X87.5Y-96.0
X87.5Y-101.5
X87.75Y-83.5
X88.25Y-91.0
X88.5Y-95.0
X88.75Y-69.25
X89.0Y-100.25
X89.5Y-88.0
X90.0Y-70.75
X90.0Y-72.25
X90.105Y-106.395
X90.5Y-71.5
X90.75Y-91.25
X91.0Y-70.75
X91.0Y-72.25
X91.0Y-96.25
X91.25Y-110.75
X91.5Y-89.0
X92.75Y-89.25
X92.753Y-109.241
X93.2Y-107.3
X93.75Y-130.0
X94.0Y-91.25
X94.25Y-105.75
X94.25Y-111.5
X94.7Y-101.4
X95.0Y-98.25
X95.4Y-107.3
X95.75Y-93.75
X96.5Y-103.9
X96.5Y-105.6
X96.9Y-101.2
X97.25Y-98.25
X98.25Y-102.25
X98.5Y-89.25
X98.75Y-87.25
X98.75Y-104.0
X98.75Y-105.75
X99.25Y-95.0
X99.25Y-101.75
X99.683Y-103.933
X100.0Y-107.75
X100.25Y-95.25
X100.25Y-105.5
X100.5Y-101.75
X101.25Y-108.95
X101.5Y-101.75
X101.5Y-104.0
X104.0Y-100.2
X104.5Y-87.278
X104.65Y-100.85
X104.75Y-89.375
X104.9Y-111.4
X104.9Y-113.6
X105.45Y-101.3
X105.5Y-83.25
X106.25Y-101.6
X106.648Y-89.718
X106.933Y-101.183
X107.0Y-89.0
X107.5Y-98.75
X107.55Y-100.45
X107.85Y-99.65
X107.933Y-92.067
X108.125Y-98.1
X109.183Y-93.317
X109.25Y-103.75
X109.75Y-90.25
X109.75Y-91.5
X109.867Y-94.074
X110.25Y-92.25
X110.25Y-114.25
X110.75Y-90.0
X110.929Y-93.0
X112.12Y-93.13
X112.4Y-77.4
X112.5Y-96.25
X112.7Y-90.1
X113.0Y-94.321
X113.25Y-88.5
X113.25Y-107.75
X113.259Y-96.503
X113.5Y-79.0
X113.951Y-82.701
X114.0Y-88.0
X114.25Y-89.0
X114.25Y-94.25
X114.25Y-95.5
X114.5Y-79.0
X114.7Y-106.1
X114.75Y-85.25
X115.0Y-102.0
X115.2Y-77.8
X115.5Y-95.5
X115.625Y-85.375
X115.718Y-86.282
X115.75Y-79.75
X115.75Y-84.5
X115.75Y-87.25
X116.0Y-76.5
X116.0Y-93.5
X116.229Y-97.988
X116.25Y-82.174
X116.25Y-96.25
X116.5Y-85.25
X116.9Y-103.9
X117.0Y-87.5
X117.0Y-93.5
X117.0Y-94.5
X117.009Y-96.503
X117.25Y-79.5
X117.431Y-100.324
X117.75Y-93.0
X117.9Y-95.8
X118.0Y-84.75
X118.0Y-99.75
X118.25Y-85.75
X118.25Y-101.25
X118.5Y-93.75
X119.0Y-79.41
X119.199Y-80.699
X119.25Y-85.75
X119.5Y-86.75
X119.801Y-81.301
X119.875Y-79.545
X120.5Y-86.75
X120.5Y-98.1
X120.75Y-107.75
X121.25Y-79.0
X121.5Y-98.0
X121.5Y-99.1
X121.708Y-77.542
X121.75Y-79.75
X121.799Y-75.299
X122.5Y-72.2
X122.5Y-79.25
X122.625Y-77.625
X122.668Y-76.826
X122.7Y-78.5
X122.75Y-75.5
X123.0Y-90.9
X123.0Y-102.75
X123.0Y-104.8
X123.11Y-79.767
X123.25Y-84.25
X123.424Y-77.582
X123.5Y-75.0
X123.5Y-76.0
X124.5Y-81.5
X124.8Y-106.6
X125.0Y-82.84
X125.0Y-84.25
X125.25Y-90.75
X125.5Y-83.5
X126.0Y-82.25
X126.0Y-88.821
X126.5Y-82.91
X126.75Y-81.5
X127.0Y-66.6
X127.25Y-88.75
X128.5Y-81.25
X129.5Y-78.25
X131.5Y-79.53
X134.0Y-76.0
X134.0Y-77.75
X137.8Y-76.0
X138.0Y-78.25
X143.6Y-98.5
X144.75Y-94.25
X145.548Y-94.201
X145.75Y-93.25
X146.316Y-93.826
X146.75Y-92.5
X147.316Y-91.91
X147.75Y-100.25
X148.0Y-101.25
X148.0Y-102.0
X148.5Y-98.25
X148.5Y-102.75
X149.75Y-103.0
X151.25Y-92.5
X151.25Y-100.75
X151.5Y-69.75
X151.5Y-71.25
X151.5Y-95.778
X151.5Y-100.0
X151.5Y-101.5
X151.75Y-102.25
X151.854Y-93.25
X152.0Y-70.5
X152.125Y-96.375
X152.5Y-69.75
X152.5Y-71.25
X152.5Y-91.5
X152.5Y-92.5
X152.5Y-100.0
X152.701Y-95.689
X152.9Y-96.9
X153.25Y-93.0
X156.25Y-79.75
X156.25Y-83.25
X156.25Y-86.75
X156.25Y-90.25
X158.375Y-78.125
X158.5Y-81.75
X158.5Y-85.25
X158.5Y-88.75
X162.2Y-78.3
X162.2Y-100.0
X162.25Y-106.0
X164.2Y-78.3
X164.2Y-100.0
X164.25Y-104.0
X164.25Y-118.5
X171.25Y-109.0
X175.25Y-110.0
X176.5Y-97.4
X180.1Y-99.3
T3
X113.5Y-97.5
X152.089Y-73.5
T4
X62.5Y-80.5
X63.0Y-88.7
X63.0Y-91.2
X65.75Y-60.25
X66.0Y-116.75
X66.0Y-118.0
X67.25Y-82.0
X67.75Y-116.75
X67.75Y-118.0
X71.5Y-66.1
X71.5Y-69.2
X80.0Y-88.25
X80.0Y-92.0
X85.25Y-92.0
X88.25Y-51.75
X88.5Y-70.25
X92.25Y-51.25
X93.25Y-86.5
X97.4Y-66.0
X97.4Y-69.1
X104.1Y-117.0
X108.5Y-66.1
X108.5Y-69.2
X110.5Y-103.25
X111.5Y-102.25
X115.0Y-92.594
X117.0Y-92.25
X119.25Y-57.0
X120.25Y-58.0
X120.556Y-87.775
X121.5Y-143.25
X121.5Y-145.75
X124.25Y-134.0
X124.25Y-136.5
X124.75Y-143.25
X124.75Y-145.75
X125.0Y-119.0
X125.73Y-65.5
X128.0Y-143.25
X128.0Y-145.75
X129.5Y-102.75
X130.75Y-104.0
X131.25Y-143.25
X131.25Y-145.75
X134.5Y-143.25
X134.5Y-145.75
X135.25Y-106.25
X135.25Y-112.25
X137.75Y-143.25
X137.75Y-145.75
X141.0Y-143.25
X141.0Y-145.75
X141.25Y-76.0
X142.75Y-74.75
X144.25Y-76.0
X144.25Y-143.25
X144.25Y-145.75
X144.5Y-72.0
X144.5Y-73.5
X144.6Y-65.4
X144.6Y-67.8
X145.045Y-101.795
X146.25Y-103.0
X147.5Y-143.25
X147.5Y-145.75
X150.75Y-143.25
X150.75Y-145.75
X151.5Y-74.25
X151.5Y-105.75
X152.75Y-74.25
X153.0Y-105.75
X153.0Y-112.25
X154.0Y-100.75
X154.0Y-143.25
X154.0Y-145.75
X154.5Y-75.5
X154.5Y-76.75
X154.5Y-103.25
X154.5Y-104.25
X154.6Y-96.8
X155.25Y-99.5
X157.02Y-71.52
X157.25Y-143.25
X157.25Y-145.75
X158.25Y-51.75
X158.25Y-70.5
X158.25Y-71.75
X160.25Y-78.0
X160.25Y-81.5
X160.25Y-85.0
X160.25Y-88.5
X160.25Y-92.0
X160.5Y-143.25
X160.5Y-145.75
X161.75Y-79.75
X161.75Y-83.25
X161.75Y-86.75
X161.75Y-90.25
X162.25Y-51.25
X164.75Y-123.85
X166.5Y-114.5
X167.25Y-120.0
X168.25Y-65.35
X168.25Y-67.75
X173.5Y-65.35
X173.5Y-67.75
X183.45Y-98.95
X184.2Y-75.6
X184.2Y-78.4
X184.46Y-114.21
X187.95Y-98.95
X188.6Y-72.75
X191.0Y-72.75
X198.5Y-114.25
T5
X52.0Y-66.25
X52.5Y-83.25
X53.0Y-102.75
X53.0Y-133.0
X53.0Y-136.5
X53.25Y-68.25
X53.95Y-124.0
X54.0Y-127.25
X54.25Y-81.5
X54.575Y-134.75
X54.575Y-138.25
X54.75Y-104.5
X55.25Y-100.5
X55.625Y-125.75
X55.675Y-129.0
X56.25Y-133.0
X56.25Y-136.5
X57.0Y-102.25
X57.2Y-124.0
X57.25Y-127.25
X57.5Y-98.25
X57.825Y-134.75
X57.825Y-138.25
X58.925Y-129.0
X59.25Y-100.0
X59.5Y-133.0
X59.5Y-136.5
X60.5Y-127.25
X61.075Y-134.75
X61.075Y-138.25
X62.0Y-104.0
X62.0Y-106.75
X62.0Y-109.75
X62.175Y-129.0
X62.75Y-83.0
X62.75Y-133.0
X62.75Y-136.5
X62.75Y-147.9
X64.05Y-97.85
X64.325Y-134.75
X64.325Y-138.25
X64.425Y-146.15
X65.0Y-104.0
X65.0Y-106.75
X65.0Y-109.75
X65.5Y-70.5
X65.8Y-99.6
X66.0Y-133.0
X66.0Y-136.5
X66.0Y-147.9
X66.5Y-140.5
X66.725Y-69.025
X67.675Y-146.15
X68.075Y-142.25
X68.25Y-80.75
X69.25Y-147.9
X69.75Y-140.5
X70.925Y-146.15
X71.325Y-142.25
X72.5Y-147.9
X74.175Y-146.15
X75.75Y-147.9
X77.225Y-146.15
X78.8Y-147.9
X80.475Y-146.15
X82.05Y-147.9
X83.725Y-146.15
X85.0Y-126.25
X85.3Y-147.9
X85.4Y-63.8
X85.4Y-65.2
X86.975Y-146.15
X88.0Y-132.75
X88.55Y-147.9
X88.6Y-63.8
X88.6Y-65.2
X90.225Y-146.15
X91.8Y-147.9
X92.0Y-126.25
X92.0Y-132.75
X93.475Y-146.15
X95.05Y-147.9
X96.525Y-146.15
X98.1Y-147.9
X99.775Y-146.15
X101.35Y-147.9
X103.025Y-146.15
X104.6Y-147.9
X105.0Y-107.2
X106.275Y-146.15
X107.85Y-147.9
X108.0Y-107.2
X109.525Y-146.15
X111.1Y-147.9
X112.575Y-146.15
X114.0Y-59.0
X114.15Y-147.9
X115.7Y-57.45
X115.825Y-146.15
X116.4Y-115.4
X116.4Y-118.8
X132.25Y-115.35
X132.25Y-118.75
X139.5Y-115.35
X139.5Y-118.75
X146.75Y-115.35
X146.75Y-118.75
X155.4Y-63.8
X155.4Y-65.2
X158.6Y-63.8
X158.6Y-65.2
X159.2Y-95.4
X159.2Y-96.8
X161.7Y-95.4
X161.7Y-96.8
X165.5Y-82.25
X165.5Y-86.25
X165.5Y-90.25
X165.5Y-93.75
X165.5Y-106.2
X170.5Y-82.25
X170.5Y-86.25
X170.5Y-90.25
X170.5Y-93.75
X170.5Y-106.2
X187.75Y-114.25
X187.75Y-116.75
X195.3Y-114.2
X195.3Y-116.7
T6
X52.6Y-55.0
X52.6Y-145.0
X53.303Y-53.303
X53.303Y-56.697
X53.303Y-143.303
X53.303Y-146.697
X55.0Y-52.6
X55.0Y-57.4
X55.0Y-142.6
X55.0Y-147.4
X56.697Y-53.303
X56.697Y-56.697
X56.697Y-143.303
X56.697Y-146.697
X57.4Y-55.0
X57.4Y-145.0
X192.6Y-55.0
X192.6Y-145.0
X193.303Y-53.303
X193.303Y-56.697
X193.303Y-143.303
X193.303Y-146.697
X195.0Y-52.6
X195.0Y-57.4
X195.0Y-142.6
X195.0Y-147.4
X196.697Y-53.303
X196.697Y-56.697
X196.697Y-143.303
X196.697Y-146.697
X197.4Y-55.0
X197.4Y-145.0
T8
X78.928Y-57.25
X78.928Y-59.79
X81.468Y-57.25
X81.468Y-59.79
X148.928Y-57.25
X148.928Y-59.79
X151.468Y-57.25
X151.468Y-59.79
T9
X53.25Y-89.0
X53.25Y-91.0
X53.25Y-93.0
X53.25Y-95.0
T10
X76.388Y-57.25
X76.388Y-59.79
X84.008Y-57.25
X84.008Y-59.79
X146.388Y-57.25
X146.388Y-59.79
X154.008Y-57.25
X154.008Y-59.79
T11
X122.0Y-53.0
X125.0Y-53.0
X128.0Y-53.0
T12
X98.73Y-54.54
X101.27Y-54.54
X168.73Y-54.54
X171.27Y-54.54
T13
X75.5Y-127.75
X75.5Y-142.25
X78.0Y-127.75
X80.5Y-127.75
X80.5Y-142.25
X169.5Y-127.75
X169.5Y-142.25
X172.0Y-127.75
X174.5Y-127.75
X174.5Y-142.25
T14
X103.75Y-132.5
X103.75Y-137.5
X116.25Y-132.5
X116.25Y-137.5
X133.75Y-132.5
X133.75Y-137.5
X146.25Y-132.5
X146.25Y-137.5
T15
X88.88Y-117.0
X161.1Y-117.0
T16
X178.0Y-103.3
X178.0Y-108.0
X178.0Y-112.7
X180.3Y-82.0
X185.0Y-82.0
X189.7Y-82.0
X192.0Y-103.3
X192.0Y-108.0
X192.0Y-112.7
T17
X118.75Y-53.0
X131.25Y-53.0
T18
X55.0Y-55.0
X55.0Y-145.0
X195.0Y-55.0
X195.0Y-145.0
T19
X72.3Y-135.25
X83.7Y-135.25
X166.3Y-135.25
X177.7Y-135.25
T20
X56.355Y-111.11
X56.355Y-116.89
T21
X124.46Y-67.584
X124.46Y-69.616
X129.54Y-68.6
T22
X97.46Y-52.0
X102.54Y-52.0
X167.46Y-52.0
X172.54Y-52.0
T23
X110.0Y-130.5
X110.0Y-139.5
X140.0Y-130.5
X140.0Y-139.5
T24
X88.88Y-124.87
T25
X100.0Y-59.62
X170.0Y-59.62
T26
X97.39Y-109.13
X152.59Y-124.87
T7
X53.075Y-109.68G85X52.275Y-109.68
G05
X53.075Y-118.32G85X52.275Y-118.32
G05
X57.405Y-109.68G85X56.305Y-109.68
G05
X57.405Y-118.32G85X56.305Y-118.32
G05
M30
