%TF.GenerationSoftware,KiCad,Pcbnew,9.0.7*%
%TF.CreationDate,2026-04-12T17:12:34+02:00*%
%TF.ProjectId,Interrupter v1.2,496e7465-7272-4757-9074-65722076312e,rev?*%
%TF.SameCoordinates,Original*%
%TF.FileFunction,Soldermask,Bot*%
%TF.FilePolarity,Negative*%
%FSLAX46Y46*%
G04 Gerber Fmt 4.6, Leading zero omitted, Abs format (unit mm)*
G04 Created by KiCad (PCBNEW 9.0.7) date 2026-04-12 17:12:34*
%MOMM*%
%LPD*%
G01*
G04 APERTURE LIST*
G04 Aperture macros list*
%AMRoundRect*
0 Rectangle with rounded corners*
0 $1 Rounding radius*
0 $2 $3 $4 $5 $6 $7 $8 $9 X,Y pos of 4 corners*
0 Add a 4 corners polygon primitive as box body*
4,1,4,$2,$3,$4,$5,$6,$7,$8,$9,$2,$3,0*
0 Add four circle primitives for the rounded corners*
1,1,$1+$1,$2,$3*
1,1,$1+$1,$4,$5*
1,1,$1+$1,$6,$7*
1,1,$1+$1,$8,$9*
0 Add four rect primitives between the rounded corners*
20,1,$1+$1,$2,$3,$4,$5,0*
20,1,$1+$1,$4,$5,$6,$7,0*
20,1,$1+$1,$6,$7,$8,$9,0*
20,1,$1+$1,$8,$9,$2,$3,0*%
%AMFreePoly0*
4,1,23,0.550000,-0.750000,0.000000,-0.750000,0.000000,-0.745722,-0.065263,-0.745722,-0.191342,-0.711940,-0.304381,-0.646677,-0.396677,-0.554381,-0.461940,-0.441342,-0.495722,-0.315263,-0.495722,-0.250000,-0.500000,-0.250000,-0.500000,0.250000,-0.495722,0.250000,-0.495722,0.315263,-0.461940,0.441342,-0.396677,0.554381,-0.304381,0.646677,-0.191342,0.711940,-0.065263,0.745722,0.000000,0.745722,
0.000000,0.750000,0.550000,0.750000,0.550000,-0.750000,0.550000,-0.750000,$1*%
%AMFreePoly1*
4,1,23,0.000000,0.745722,0.065263,0.745722,0.191342,0.711940,0.304381,0.646677,0.396677,0.554381,0.461940,0.441342,0.495722,0.315263,0.495722,0.250000,0.500000,0.250000,0.500000,-0.250000,0.495722,-0.250000,0.495722,-0.315263,0.461940,-0.441342,0.396677,-0.554381,0.304381,-0.646677,0.191342,-0.711940,0.065263,-0.745722,0.000000,-0.745722,0.000000,-0.750000,-0.550000,-0.750000,
-0.550000,0.750000,0.000000,0.750000,0.000000,0.745722,0.000000,0.745722,$1*%
G04 Aperture macros list end*
%ADD10C,0.010000*%
%ADD11C,0.800000*%
%ADD12C,6.400000*%
%ADD13C,1.365000*%
%ADD14C,1.210000*%
%ADD15C,1.830000*%
%ADD16C,3.400000*%
%ADD17RoundRect,0.102000X0.739000X0.739000X-0.739000X0.739000X-0.739000X-0.739000X0.739000X-0.739000X0*%
%ADD18C,1.682000*%
%ADD19C,2.775000*%
%ADD20C,1.850000*%
%ADD21RoundRect,0.102000X-0.937500X-0.937500X0.937500X-0.937500X0.937500X0.937500X-0.937500X0.937500X0*%
%ADD22C,2.079000*%
%ADD23R,2.775000X2.775000*%
%ADD24C,0.650000*%
%ADD25O,2.100000X1.000000*%
%ADD26O,1.800000X1.000000*%
%ADD27C,1.650000*%
%ADD28C,5.161000*%
%ADD29R,1.350000X1.350000*%
%ADD30C,1.350000*%
%ADD31C,0.990600*%
%ADD32C,2.000000*%
%ADD33RoundRect,0.225000X-0.335876X-0.017678X-0.017678X-0.335876X0.335876X0.017678X0.017678X0.335876X0*%
%ADD34RoundRect,0.135000X-0.135000X-0.185000X0.135000X-0.185000X0.135000X0.185000X-0.135000X0.185000X0*%
%ADD35RoundRect,0.250000X0.250000X0.475000X-0.250000X0.475000X-0.250000X-0.475000X0.250000X-0.475000X0*%
%ADD36RoundRect,0.250000X-0.475000X0.250000X-0.475000X-0.250000X0.475000X-0.250000X0.475000X0.250000X0*%
%ADD37RoundRect,0.150000X-0.512500X-0.150000X0.512500X-0.150000X0.512500X0.150000X-0.512500X0.150000X0*%
%ADD38RoundRect,0.140000X0.021213X-0.219203X0.219203X-0.021213X-0.021213X0.219203X-0.219203X0.021213X0*%
%ADD39RoundRect,0.225000X0.250000X-0.225000X0.250000X0.225000X-0.250000X0.225000X-0.250000X-0.225000X0*%
%ADD40RoundRect,0.218750X-0.335876X-0.026517X-0.026517X-0.335876X0.335876X0.026517X0.026517X0.335876X0*%
%ADD41RoundRect,0.140000X-0.219203X-0.021213X-0.021213X-0.219203X0.219203X0.021213X0.021213X0.219203X0*%
%ADD42RoundRect,0.250000X-0.512652X-0.159099X-0.159099X-0.512652X0.512652X0.159099X0.159099X0.512652X0*%
%ADD43RoundRect,0.250000X0.512652X0.159099X0.159099X0.512652X-0.512652X-0.159099X-0.159099X-0.512652X0*%
%ADD44RoundRect,0.135000X0.135000X0.185000X-0.135000X0.185000X-0.135000X-0.185000X0.135000X-0.185000X0*%
%ADD45FreePoly0,180.000000*%
%ADD46R,1.000000X1.500000*%
%ADD47FreePoly1,180.000000*%
%ADD48RoundRect,0.140000X-0.170000X0.140000X-0.170000X-0.140000X0.170000X-0.140000X0.170000X0.140000X0*%
%ADD49C,1.400000*%
%ADD50C,3.653000*%
%ADD51RoundRect,0.225000X-0.250000X0.225000X-0.250000X-0.225000X0.250000X-0.225000X0.250000X0.225000X0*%
%ADD52RoundRect,0.102000X0.600000X-0.350000X0.600000X0.350000X-0.600000X0.350000X-0.600000X-0.350000X0*%
%ADD53RoundRect,0.102000X0.600000X-0.500000X0.600000X0.500000X-0.600000X0.500000X-0.600000X-0.500000X0*%
%ADD54RoundRect,0.102000X1.400000X-0.500000X1.400000X0.500000X-1.400000X0.500000X-1.400000X-0.500000X0*%
%ADD55RoundRect,0.102000X0.950000X-0.650000X0.950000X0.650000X-0.950000X0.650000X-0.950000X-0.650000X0*%
%ADD56RoundRect,0.102000X0.400000X-0.500000X0.400000X0.500000X-0.400000X0.500000X-0.400000X-0.500000X0*%
%ADD57RoundRect,0.102000X-0.315000X-0.250000X0.315000X-0.250000X0.315000X0.250000X-0.315000X0.250000X0*%
%ADD58RoundRect,0.135000X0.185000X-0.135000X0.185000X0.135000X-0.185000X0.135000X-0.185000X-0.135000X0*%
%ADD59RoundRect,0.135000X-0.185000X0.135000X-0.185000X-0.135000X0.185000X-0.135000X0.185000X0.135000X0*%
%ADD60RoundRect,0.140000X0.140000X0.170000X-0.140000X0.170000X-0.140000X-0.170000X0.140000X-0.170000X0*%
%ADD61R,1.905000X2.790000*%
%ADD62C,3.550000*%
%ADD63C,2.390000*%
%ADD64C,3.500000*%
%ADD65RoundRect,0.500000X1.000000X1.000000X-1.000000X1.000000X-1.000000X-1.000000X1.000000X-1.000000X0*%
%ADD66RoundRect,0.200000X-0.275000X0.200000X-0.275000X-0.200000X0.275000X-0.200000X0.275000X0.200000X0*%
%ADD67RoundRect,0.140000X0.170000X-0.140000X0.170000X0.140000X-0.170000X0.140000X-0.170000X-0.140000X0*%
%ADD68RoundRect,0.062500X0.375000X0.062500X-0.375000X0.062500X-0.375000X-0.062500X0.375000X-0.062500X0*%
%ADD69RoundRect,0.062500X0.062500X0.375000X-0.062500X0.375000X-0.062500X-0.375000X0.062500X-0.375000X0*%
%ADD70R,1.600000X1.600000*%
%ADD71RoundRect,0.140000X-0.021213X0.219203X-0.219203X0.021213X0.021213X-0.219203X0.219203X-0.021213X0*%
%ADD72RoundRect,0.250000X-0.250000X-0.475000X0.250000X-0.475000X0.250000X0.475000X-0.250000X0.475000X0*%
%ADD73RoundRect,0.225000X0.225000X0.250000X-0.225000X0.250000X-0.225000X-0.250000X0.225000X-0.250000X0*%
%ADD74RoundRect,0.218750X-0.218750X-0.256250X0.218750X-0.256250X0.218750X0.256250X-0.218750X0.256250X0*%
%ADD75RoundRect,0.140000X0.219203X0.021213X0.021213X0.219203X-0.219203X-0.021213X-0.021213X-0.219203X0*%
%ADD76FreePoly0,0.000000*%
%ADD77FreePoly1,0.000000*%
G04 APERTURE END LIST*
%TO.C,JP3*%
G36*
X159750000Y-86000000D02*
G01*
X158250000Y-86000000D01*
X158250000Y-87500000D01*
X159750000Y-87500000D01*
X159750000Y-86000000D01*
G37*
D10*
%TO.C,U3*%
X171285000Y-118575000D02*
X168775000Y-118575000D01*
X168775000Y-115925000D01*
X171285000Y-115925000D01*
X171285000Y-118575000D01*
G36*
X171285000Y-118575000D02*
G01*
X168775000Y-118575000D01*
X168775000Y-115925000D01*
X171285000Y-115925000D01*
X171285000Y-118575000D01*
G37*
%TO.C,U4*%
X171285000Y-123325000D02*
X168775000Y-123325000D01*
X168775000Y-120675000D01*
X171285000Y-120675000D01*
X171285000Y-123325000D01*
G36*
X171285000Y-123325000D02*
G01*
X168775000Y-123325000D01*
X168775000Y-120675000D01*
X171285000Y-120675000D01*
X171285000Y-123325000D01*
G37*
%TO.C,JP2*%
G36*
X159750000Y-82500000D02*
G01*
X158250000Y-82500000D01*
X158250000Y-84000000D01*
X159750000Y-84000000D01*
X159750000Y-82500000D01*
G37*
%TO.C,JP4*%
G36*
X159750000Y-89500000D02*
G01*
X158250000Y-89500000D01*
X158250000Y-91000000D01*
X159750000Y-91000000D01*
X159750000Y-89500000D01*
G37*
%TO.C,JP1*%
G36*
X158250000Y-80500000D02*
G01*
X159750000Y-80500000D01*
X159750000Y-79000000D01*
X158250000Y-79000000D01*
X158250000Y-80500000D01*
G37*
%TD*%
D11*
%TO.C,H2*%
X192600000Y-145000000D03*
X193302944Y-143302944D03*
X193302944Y-146697056D03*
X195000000Y-142600000D03*
D12*
X195000000Y-145000000D03*
D11*
X195000000Y-147400000D03*
X196697056Y-143302944D03*
X196697056Y-146697056D03*
X197400000Y-145000000D03*
%TD*%
D13*
%TO.C,U6*%
X76388000Y-59790000D03*
D14*
X78928000Y-59790000D03*
X81468000Y-59790000D03*
D13*
X84008000Y-59790000D03*
X84008000Y-57250000D03*
D14*
X81468000Y-57250000D03*
X78928000Y-57250000D03*
D13*
X76388000Y-57250000D03*
%TD*%
D15*
%TO.C,D8*%
X172540000Y-52000000D03*
D16*
X170000000Y-59620000D03*
D15*
X167460000Y-52000000D03*
D17*
X171270000Y-54540000D03*
D18*
X168730000Y-54540000D03*
%TD*%
D19*
%TO.C,SW8*%
X192000000Y-103300000D03*
X192000000Y-108000000D03*
X192000000Y-112700000D03*
%TD*%
D20*
%TO.C,SW6*%
X140000000Y-130500000D03*
X140000000Y-139500000D03*
D21*
X133750000Y-132500000D03*
D22*
X146250000Y-132500000D03*
X133750000Y-137500000D03*
X146250000Y-137500000D03*
%TD*%
D15*
%TO.C,D6*%
X102540000Y-52000000D03*
D16*
X100000000Y-59620000D03*
D15*
X97460000Y-52000000D03*
D17*
X101270000Y-54540000D03*
D18*
X98730000Y-54540000D03*
%TD*%
D23*
%TO.C,SW9*%
X189700000Y-82000000D03*
D19*
X185000000Y-82000000D03*
X180300000Y-82000000D03*
%TD*%
D24*
%TO.C,J2*%
X56355000Y-111110000D03*
X56355000Y-116890000D03*
D25*
X56855000Y-109680000D03*
D26*
X52675000Y-109680000D03*
D25*
X56855000Y-118320000D03*
D26*
X52675000Y-118320000D03*
%TD*%
D11*
%TO.C,H3*%
X52600000Y-55000000D03*
X53302944Y-53302944D03*
X53302944Y-56697056D03*
X55000000Y-52600000D03*
D12*
X55000000Y-55000000D03*
D11*
X55000000Y-57400000D03*
X56697056Y-53302944D03*
X56697056Y-56697056D03*
X57400000Y-55000000D03*
%TD*%
D19*
%TO.C,SW7*%
X178000000Y-103300000D03*
X178000000Y-108000000D03*
X178000000Y-112700000D03*
%TD*%
D13*
%TO.C,U7*%
X146388000Y-59790000D03*
D14*
X148928000Y-59790000D03*
X151468000Y-59790000D03*
D13*
X154008000Y-59790000D03*
X154008000Y-57250000D03*
D14*
X151468000Y-57250000D03*
X148928000Y-57250000D03*
D13*
X146388000Y-57250000D03*
%TD*%
D11*
%TO.C,H4*%
X52600000Y-145000000D03*
X53302944Y-143302944D03*
X53302944Y-146697056D03*
X55000000Y-142600000D03*
D12*
X55000000Y-145000000D03*
D11*
X55000000Y-147400000D03*
X56697056Y-143302944D03*
X56697056Y-146697056D03*
X57400000Y-145000000D03*
%TD*%
D27*
%TO.C,ENC1*%
X80500000Y-142250000D03*
X75500000Y-142250000D03*
X80500000Y-127750000D03*
X75500000Y-127750000D03*
X78000000Y-127750000D03*
D28*
X83700000Y-135250000D03*
X72300000Y-135250000D03*
%TD*%
D29*
%TO.C,J1*%
X53250000Y-89000000D03*
D30*
X53250000Y-91000000D03*
X53250000Y-93000000D03*
X53250000Y-95000000D03*
%TD*%
D11*
%TO.C,H1*%
X192600000Y-55000000D03*
X193302944Y-53302944D03*
X193302944Y-56697056D03*
X195000000Y-52600000D03*
D12*
X195000000Y-55000000D03*
D11*
X195000000Y-57400000D03*
X196697056Y-53302944D03*
X196697056Y-56697056D03*
X197400000Y-55000000D03*
%TD*%
D20*
%TO.C,SW5*%
X110000000Y-130500000D03*
X110000000Y-139500000D03*
D21*
X103750000Y-132500000D03*
D22*
X116250000Y-132500000D03*
X103750000Y-137500000D03*
X116250000Y-137500000D03*
%TD*%
D31*
%TO.C,J3*%
X129540000Y-68600000D03*
X124460000Y-69616000D03*
X124460000Y-67584000D03*
%TD*%
D27*
%TO.C,ENC2*%
X174500000Y-142250000D03*
X169500000Y-142250000D03*
X174500000Y-127750000D03*
X169500000Y-127750000D03*
X172000000Y-127750000D03*
D28*
X177700000Y-135250000D03*
X166300000Y-135250000D03*
%TD*%
D32*
%TO.C,FID2*%
X188500000Y-55000000D03*
%TD*%
D33*
%TO.C,C5*%
X112701992Y-98951992D03*
X113798008Y-100048008D03*
%TD*%
D34*
%TO.C,R35*%
X72750000Y-126300000D03*
X73770000Y-126300000D03*
%TD*%
D35*
%TO.C,C33*%
X54250000Y-121500000D03*
X52350000Y-121500000D03*
%TD*%
D32*
%TO.C,FID6*%
X61500000Y-145000000D03*
%TD*%
D36*
%TO.C,C21*%
X72750000Y-116300000D03*
X72750000Y-118200000D03*
%TD*%
D37*
%TO.C,U5*%
X68862500Y-126250000D03*
X68862500Y-125300000D03*
X68862500Y-124350000D03*
X71137500Y-124350000D03*
X71137500Y-126250000D03*
%TD*%
D38*
%TO.C,C15*%
X105160589Y-88839411D03*
X105839411Y-88160589D03*
%TD*%
D39*
%TO.C,C45*%
X135250000Y-76750000D03*
X135250000Y-75200000D03*
%TD*%
D40*
%TO.C,FB1*%
X110193153Y-98943153D03*
X111306847Y-100056847D03*
%TD*%
D41*
%TO.C,C16*%
X116250000Y-80250000D03*
X116928822Y-80928822D03*
%TD*%
D42*
%TO.C,C10*%
X114578249Y-90328249D03*
X115921751Y-91671751D03*
%TD*%
D39*
%TO.C,C46*%
X131500000Y-76750000D03*
X131500000Y-75200000D03*
%TD*%
D43*
%TO.C,C8*%
X122171751Y-90271751D03*
X120828249Y-88928249D03*
%TD*%
D44*
%TO.C,R57*%
X132770000Y-78225000D03*
X131750000Y-78225000D03*
%TD*%
D38*
%TO.C,C17*%
X108410589Y-91589411D03*
X109089411Y-90910589D03*
%TD*%
D45*
%TO.C,JP3*%
X160300000Y-86750000D03*
D46*
X159000000Y-86750000D03*
D47*
X157700000Y-86750000D03*
%TD*%
D43*
%TO.C,C2*%
X115171751Y-81671751D03*
X113828249Y-80328249D03*
%TD*%
D48*
%TO.C,C49*%
X147750000Y-98520000D03*
X147750000Y-99480000D03*
%TD*%
D49*
%TO.C,SW4*%
X122000000Y-53000000D03*
X125000000Y-53000000D03*
X128000000Y-53000000D03*
D50*
X118750000Y-53000000D03*
X131250000Y-53000000D03*
%TD*%
D51*
%TO.C,C36*%
X154000000Y-97975000D03*
X154000000Y-99525000D03*
%TD*%
D52*
%TO.C,J5*%
X66725000Y-71975000D03*
X66725000Y-73075000D03*
X66725000Y-74175000D03*
X66725000Y-75275000D03*
X66725000Y-76375000D03*
X66725000Y-77475000D03*
X66725000Y-78575000D03*
X66725000Y-79675000D03*
D53*
X62425000Y-81575000D03*
D54*
X52075000Y-81575000D03*
D55*
X51625000Y-68075000D03*
D53*
X66725000Y-70425000D03*
D56*
X56225000Y-81575000D03*
D52*
X66725000Y-80625000D03*
%TD*%
D57*
%TO.C,U3*%
X168000000Y-118225000D03*
X168000000Y-117575000D03*
X168000000Y-116925000D03*
X168000000Y-116275000D03*
%TD*%
D44*
%TO.C,R34*%
X121260000Y-57000000D03*
X120240000Y-57000000D03*
%TD*%
D58*
%TO.C,R54*%
X97500000Y-87760000D03*
X97500000Y-86740000D03*
%TD*%
%TO.C,R33*%
X71500000Y-128760000D03*
X71500000Y-127740000D03*
%TD*%
D59*
%TO.C,R23*%
X166500000Y-121015000D03*
X166500000Y-122035000D03*
%TD*%
D38*
%TO.C,C13*%
X112910589Y-95589411D03*
X113589411Y-94910589D03*
%TD*%
D36*
%TO.C,C20*%
X70250000Y-116300000D03*
X70250000Y-118200000D03*
%TD*%
D60*
%TO.C,C30*%
X70980000Y-123000000D03*
X70020000Y-123000000D03*
%TD*%
D38*
%TO.C,C7*%
X114910589Y-97589411D03*
X115589411Y-96910589D03*
%TD*%
D61*
%TO.C,L1*%
X64925500Y-123750000D03*
X60074500Y-123750000D03*
%TD*%
D62*
%TO.C,BT1*%
X152590000Y-124870000D03*
X97390000Y-109130000D03*
D63*
X88880000Y-124870000D03*
D64*
X88880000Y-117000000D03*
D65*
X161100000Y-117000000D03*
%TD*%
D44*
%TO.C,R67*%
X56260000Y-83250000D03*
X55240000Y-83250000D03*
%TD*%
D66*
%TO.C,TH1*%
X125000000Y-116175000D03*
X125000000Y-117825000D03*
%TD*%
D67*
%TO.C,C31*%
X70000000Y-128730000D03*
X70000000Y-127770000D03*
%TD*%
D68*
%TO.C,U2*%
X80937500Y-116000000D03*
X80937500Y-116500000D03*
X80937500Y-117000000D03*
X80937500Y-117500000D03*
D69*
X80250000Y-118187500D03*
X79750000Y-118187500D03*
X79250000Y-118187500D03*
X78750000Y-118187500D03*
D68*
X78062500Y-117500000D03*
X78062500Y-117000000D03*
X78062500Y-116500000D03*
X78062500Y-116000000D03*
D69*
X78750000Y-115312500D03*
X79250000Y-115312500D03*
X79750000Y-115312500D03*
X80250000Y-115312500D03*
D70*
X79500000Y-116750000D03*
%TD*%
D58*
%TO.C,R52*%
X136775000Y-76985000D03*
X136775000Y-75965000D03*
%TD*%
D71*
%TO.C,C12*%
X117339411Y-99160589D03*
X116660589Y-99839411D03*
%TD*%
D72*
%TO.C,C27*%
X77050000Y-125250000D03*
X78950000Y-125250000D03*
%TD*%
%TO.C,C34*%
X65800000Y-128500000D03*
X67700000Y-128500000D03*
%TD*%
D73*
%TO.C,C43*%
X96025000Y-86500000D03*
X94475000Y-86500000D03*
%TD*%
D48*
%TO.C,C38*%
X152750000Y-97770000D03*
X152750000Y-98730000D03*
%TD*%
%TO.C,C37*%
X151750000Y-97770000D03*
X151750000Y-98730000D03*
%TD*%
D57*
%TO.C,U4*%
X168000000Y-122975000D03*
X168000000Y-122325000D03*
X168000000Y-121675000D03*
X168000000Y-121025000D03*
%TD*%
D74*
%TO.C,FB2*%
X70675000Y-114750000D03*
X72250000Y-114750000D03*
%TD*%
D75*
%TO.C,C14*%
X110339411Y-93589411D03*
X109660589Y-92910589D03*
%TD*%
D44*
%TO.C,R6*%
X56260000Y-93000000D03*
X55240000Y-93000000D03*
%TD*%
D34*
%TO.C,R27*%
X79490000Y-114000000D03*
X80510000Y-114000000D03*
%TD*%
D59*
%TO.C,R24*%
X166500000Y-115740000D03*
X166500000Y-116760000D03*
%TD*%
D72*
%TO.C,C28*%
X77050000Y-121250000D03*
X78950000Y-121250000D03*
%TD*%
D32*
%TO.C,FID4*%
X61500000Y-55000000D03*
%TD*%
D44*
%TO.C,R56*%
X136535000Y-78225000D03*
X135515000Y-78225000D03*
%TD*%
D58*
%TO.C,R53*%
X133000000Y-76985000D03*
X133000000Y-75965000D03*
%TD*%
D51*
%TO.C,C48*%
X146250000Y-100245000D03*
X146250000Y-101795000D03*
%TD*%
D74*
%TO.C,FB3*%
X144712500Y-98520000D03*
X146287500Y-98520000D03*
%TD*%
D45*
%TO.C,JP2*%
X160300000Y-83250000D03*
D46*
X159000000Y-83250000D03*
D47*
X157700000Y-83250000D03*
%TD*%
D38*
%TO.C,C6*%
X114160589Y-96839411D03*
X114839411Y-96160589D03*
%TD*%
D44*
%TO.C,R7*%
X56260000Y-95000000D03*
X55240000Y-95000000D03*
%TD*%
D58*
%TO.C,R29*%
X82000000Y-115010000D03*
X82000000Y-113990000D03*
%TD*%
D72*
%TO.C,C29*%
X77050000Y-123250000D03*
X78950000Y-123250000D03*
%TD*%
D45*
%TO.C,JP4*%
X160300000Y-90250000D03*
D46*
X159000000Y-90250000D03*
D47*
X157700000Y-90250000D03*
%TD*%
D44*
%TO.C,R50*%
X96260000Y-88000000D03*
X95240000Y-88000000D03*
%TD*%
D38*
%TO.C,C11*%
X125910589Y-90089411D03*
X126589411Y-89410589D03*
%TD*%
D76*
%TO.C,JP1*%
X157700000Y-79750000D03*
D46*
X159000000Y-79750000D03*
D77*
X160300000Y-79750000D03*
%TD*%
M02*
